# xmcd
#
# Track frame offsets: 
#        150
#        21613
#        38459
#        57034
#        70169
#        91356
#        111841
#        135188
#        154214
#        169140
#        194027
#        213883
#
# Disc length: 3649 seconds
#
# Revision: 0
# Processed by: cddbd v1.5.2PL0 Copyright (c) Steve Scherf et al.
# Submitted via: ExactAudioCopyFreeDBPlugin 1.0
#
DISCID=a10e3f0c
DTITLE=eou - KID LIFE CRISIS
DYEAR=2012
DGENRE=Hip-Hop
TTITLE0=immernochso
TTITLE1=IMOK
TTITLE2=Und alle so yeah
TTITLE3=Aber nicht
TTITLE4=Schmetterhund
TTITLE5=Problemkinder feat. Ahzumjot
TTITLE6=Kopf on the Rocks
TTITLE7=Kein Lieblingslied
TTITLE8=Bin ich Fan von
TTITLE9=Kryptonit feat. Rockstah
TTITLE10=Weltverschlimmbesserer
TTITLE11=Alles cool
EXTD=
EXTT0=
EXTT1=
EXTT2=
EXTT3=
EXTT4=
EXTT5=
EXTT6=
EXTT7=
EXTT8=
EXTT9=
EXTT10=
EXTT11=
PLAYORDER=
